<svg width="189" height="31" viewBox="0 0 189 31" fill="none" xmlns="http://www.w3.org/2000/svg">
<path d="M24.8608 0.90909V30H19.5483L6.89205 11.6903H6.67898V30H0.528409V0.90909H5.92614L18.483 19.2045H18.7386V0.90909H24.8608ZM43.8203 20.7102V8.18182H49.8714V30H44.0618V26.0369H43.8345C43.3421 27.3153 42.523 28.3428 41.3771 29.1193C40.2408 29.8958 38.8535 30.2841 37.2152 30.2841C35.7569 30.2841 34.4737 29.9527 33.3658 29.2898C32.2578 28.6269 31.3913 27.6847 30.7663 26.4631C30.1508 25.2415 29.8383 23.7784 29.8288 22.0739V8.18182H35.88V20.9943C35.8894 22.2822 36.2351 23.3002 36.9169 24.0483C37.5987 24.7964 38.5125 25.1705 39.6584 25.1705C40.3875 25.1705 41.0694 25.0047 41.7038 24.6733C42.3383 24.3324 42.8497 23.8305 43.2379 23.1676C43.6357 22.5047 43.8298 21.6856 43.8203 20.7102ZM54.8253 30V0.90909H60.8764V11.8466H61.0611C61.3262 11.2595 61.7098 10.6629 62.2116 10.0568C62.723 9.44129 63.3859 8.92992 64.2003 8.52273C65.0241 8.10606 66.0469 7.89773 67.2685 7.89773C68.8594 7.89773 70.3272 8.31439 71.6719 9.14773C73.0166 9.97159 74.0914 11.2169 74.8963 12.8835C75.7012 14.5407 76.1037 16.6193 76.1037 19.1193C76.1037 21.553 75.7107 23.608 74.9247 25.2841C74.1482 26.9508 73.0876 28.215 71.7429 29.0767C70.4077 29.929 68.9115 30.3551 67.2543 30.3551C66.08 30.3551 65.081 30.161 64.2571 29.7727C63.4427 29.3845 62.7751 28.8968 62.2543 28.3097C61.7334 27.7131 61.3357 27.1117 61.0611 26.5057H60.7912V30H54.8253ZM60.7486 19.0909C60.7486 20.3883 60.9285 21.5199 61.2884 22.4858C61.6482 23.4517 62.169 24.2045 62.8509 24.7443C63.5327 25.2746 64.3613 25.5398 65.3366 25.5398C66.3215 25.5398 67.1548 25.2699 67.8366 24.7301C68.5185 24.1809 69.0346 23.4233 69.3849 22.4574C69.7448 21.482 69.9247 20.3598 69.9247 19.0909C69.9247 17.8314 69.7495 16.7235 69.3991 15.767C69.0488 14.8106 68.5327 14.0625 67.8509 13.5227C67.169 12.983 66.331 12.7131 65.3366 12.7131C64.3518 12.7131 63.5185 12.9735 62.8366 13.4943C62.1643 14.0152 61.6482 14.7538 61.2884 15.7102C60.9285 16.6667 60.7486 17.7936 60.7486 19.0909ZM90.0845 30.4261C87.8402 30.4261 85.9084 29.9716 84.2891 29.0625C82.6792 28.1439 81.4387 26.8466 80.5675 25.1705C79.6963 23.4848 79.2607 21.4915 79.2607 19.1903C79.2607 16.946 79.6963 14.9763 80.5675 13.2812C81.4387 11.5862 82.665 10.2652 84.2464 9.31818C85.8374 8.37121 87.7029 7.89773 89.843 7.89773C91.2824 7.89773 92.6224 8.12973 93.8629 8.59375C95.1129 9.0483 96.2019 9.73485 97.13 10.6534C98.0675 11.572 98.7966 12.7273 99.3175 14.1193C99.8383 15.5019 100.099 17.1212 100.099 18.9773V20.6392H81.6754V16.8892H94.4027C94.4027 16.018 94.2133 15.2462 93.8345 14.5739C93.4557 13.9015 92.9302 13.3759 92.2578 12.9972C91.5949 12.6089 90.8232 12.4148 89.9425 12.4148C89.0239 12.4148 88.2095 12.6278 87.4993 13.054C86.7985 13.4706 86.2493 14.0341 85.8516 14.7443C85.4538 15.4451 85.2502 16.2263 85.2408 17.0881V20.6534C85.2408 21.733 85.4396 22.6657 85.8374 23.4517C86.2446 24.2377 86.8175 24.8438 87.5561 25.2699C88.2947 25.696 89.1707 25.9091 90.1839 25.9091C90.8563 25.9091 91.4718 25.8144 92.0305 25.625C92.5893 25.4356 93.0675 25.1515 93.4652 24.7727C93.8629 24.3939 94.166 23.9299 94.3743 23.3807L99.9709 23.75C99.6868 25.0947 99.1044 26.2689 98.2237 27.2727C97.3525 28.267 96.2256 29.0436 94.843 29.6023C93.4699 30.1515 91.8838 30.4261 90.0845 30.4261Z" fill="#2B2B2B"/>
<path d="M104.161 30V0.90909H115.638C117.835 0.90909 119.71 1.30208 121.263 2.08807C122.826 2.86458 124.014 3.9678 124.829 5.39773C125.653 6.81818 126.065 8.48958 126.065 10.4119C126.065 12.3437 125.648 14.0057 124.815 15.3977C123.981 16.7803 122.774 17.8409 121.192 18.5795C119.621 19.3182 117.717 19.6875 115.482 19.6875H107.798V14.7443H114.488C115.662 14.7443 116.638 14.5833 117.414 14.2614C118.191 13.9394 118.768 13.4564 119.147 12.8125C119.535 12.1686 119.729 11.3684 119.729 10.4119C119.729 9.44602 119.535 8.63163 119.147 7.96875C118.768 7.30587 118.186 6.80398 117.4 6.46307C116.623 6.11269 115.643 5.9375 114.46 5.9375H110.312V30H104.161ZM119.871 16.7614L127.102 30H120.312L113.238 16.7614H119.871ZM139.889 30.4261C137.645 30.4261 135.713 29.9716 134.094 29.0625C132.484 28.1439 131.243 26.8466 130.372 25.1705C129.501 23.4848 129.065 21.4915 129.065 19.1903C129.065 16.946 129.501 14.9763 130.372 13.2812C131.243 11.5862 132.47 10.2652 134.051 9.31818C135.642 8.37121 137.508 7.89773 139.648 7.89773C141.087 7.89773 142.427 8.12973 143.668 8.59375C144.918 9.0483 146.007 9.73485 146.935 10.6534C147.872 11.572 148.601 12.7273 149.122 14.1193C149.643 15.5019 149.903 17.1212 149.903 18.9773V20.6392H131.48V16.8892H144.207C144.207 16.018 144.018 15.2462 143.639 14.5739C143.26 13.9015 142.735 13.3759 142.062 12.9972C141.4 12.6089 140.628 12.4148 139.747 12.4148C138.829 12.4148 138.014 12.6278 137.304 13.054C136.603 13.4706 136.054 14.0341 135.656 14.7443C135.259 15.4451 135.055 16.2263 135.045 17.0881V20.6534C135.045 21.733 135.244 22.6657 135.642 23.4517C136.049 24.2377 136.622 24.8438 137.361 25.2699C138.099 25.696 138.975 25.9091 139.989 25.9091C140.661 25.9091 141.277 25.8144 141.835 25.625C142.394 25.4356 142.872 25.1515 143.27 24.7727C143.668 24.3939 143.971 23.9299 144.179 23.3807L149.776 23.75C149.491 25.0947 148.909 26.2689 148.028 27.2727C147.157 28.267 146.03 29.0436 144.648 29.6023C143.275 30.1515 141.688 30.4261 139.889 30.4261ZM172.006 14.4034L166.466 14.7443C166.371 14.2708 166.168 13.8447 165.855 13.4659C165.543 13.0777 165.131 12.7699 164.619 12.5426C164.117 12.3059 163.516 12.1875 162.815 12.1875C161.878 12.1875 161.087 12.3864 160.443 12.7841C159.799 13.1723 159.477 13.6932 159.477 14.3466C159.477 14.8674 159.686 15.3078 160.102 15.6676C160.519 16.0275 161.234 16.3163 162.247 16.5341L166.196 17.3295C168.317 17.7652 169.899 18.4659 170.94 19.4318C171.982 20.3977 172.503 21.6667 172.503 23.2386C172.503 24.6686 172.081 25.9233 171.239 27.0028C170.405 28.0824 169.259 28.9252 167.801 29.5312C166.352 30.1278 164.681 30.4261 162.787 30.4261C159.899 30.4261 157.598 29.8248 155.884 28.6222C154.179 27.41 153.18 25.7623 152.886 23.679L158.838 23.3665C159.018 24.2472 159.454 24.9195 160.145 25.3835C160.836 25.8381 161.722 26.0653 162.801 26.0653C163.862 26.0653 164.714 25.8617 165.358 25.4545C166.011 25.0379 166.343 24.5028 166.352 23.8494C166.343 23.3002 166.111 22.8504 165.656 22.5C165.202 22.1402 164.501 21.8655 163.554 21.6761L159.776 20.9233C157.645 20.4972 156.059 19.7585 155.017 18.7074C153.985 17.6562 153.469 16.3163 153.469 14.6875C153.469 13.286 153.848 12.0786 154.605 11.0653C155.372 10.0521 156.447 9.27083 157.83 8.72159C159.222 8.17235 160.85 7.89773 162.716 7.89773C165.472 7.89773 167.64 8.48011 169.222 9.64489C170.813 10.8097 171.741 12.3958 172.006 14.4034ZM187.918 8.18182V12.7273H174.779V8.18182H187.918ZM177.762 2.95455H183.813V23.2955C183.813 23.8542 183.898 24.2898 184.069 24.6023C184.239 24.9053 184.476 25.1184 184.779 25.2415C185.092 25.3646 185.451 25.4261 185.859 25.4261C186.143 25.4261 186.427 25.4025 186.711 25.3551C186.995 25.2983 187.213 25.2557 187.364 25.2273L188.316 29.7301C188.013 29.8248 187.587 29.9337 187.038 30.0568C186.488 30.1894 185.821 30.2699 185.035 30.2983C183.576 30.3551 182.298 30.161 181.2 29.7159C180.111 29.2708 179.263 28.5795 178.657 27.642C178.051 26.7045 177.753 25.5208 177.762 24.0909V2.95455Z" fill="#E49542"/>
</svg>
